<svg width="39" height="39" viewBox="0 0 39 39">
<symbol
id="0"
>
<rect id="Rectangle 18" width="3.00001" height="3" fill="black"/>
<rect id="Rectangle 17" y="3" width="3.00001" height="3" fill="black"/>
<rect id="Rectangle 19" y="6" width="3.00001" height="3" fill="black"/>
<rect id="Rectangle 20" y="9" width="3.00001" height="3" fill="black"/>
<rect id="Rectangle 21" y="12" width="3.00001" height="3" fill="black"/>
<rect id="Rectangle 22" y="15" width="3.00001" height="3" fill="black"/>
<rect id="Rectangle 23" y="18" width="3.00001" height="3" fill="black"/>
<rect id="Rectangle 24" y="21" width="3.00001" height="3" fill="black"/>
<rect id="Rectangle 25" y="24" width="3.00001" height="3" fill="black"/>
<rect id="Rectangle 26" y="27" width="3.00001" height="3" fill="black"/>
<rect id="Rectangle 27" y="30" width="3.00001" height="3" fill="black"/>
<rect id="Rectangle 28" y="33" width="3.00001" height="3" fill="black"/>
<rect id="Rectangle 29" y="36" width="3.00001" height="3" fill="black"/>
<rect id="Rectangle 32" x="33" width="3" height="3.00001" transform="rotate(90 33 0)" fill="black"/>
<rect id="Rectangle 33" x="30.0032" width="3" height="3.00001" transform="rotate(90 30.0032 0)" fill="black"/>
<rect id="Rectangle 34" x="26.9998" width="3" height="3.00001" transform="rotate(90 26.9998 0)" fill="black"/>
<rect id="Rectangle 35" x="23.9998" width="3" height="3.00001" transform="rotate(90 23.9998 0)" fill="black"/>
<rect id="Rectangle 36" x="20.999" width="3" height="3.00001" transform="rotate(90 20.999 0)" fill="black"/>
<rect id="Rectangle 37" x="17.9998" width="3" height="3.00001" transform="rotate(90 17.9998 0)" fill="black"/>
<rect id="Rectangle 38" x="14.999" width="3" height="3.00001" transform="rotate(90 14.999 0)" fill="black"/>
<rect id="Rectangle 39" x="12" width="3" height="3.00001" transform="rotate(90 12 0)" fill="black"/>
<rect id="Rectangle 40" x="8.99609" width="3" height="3.00001" transform="rotate(90 8.99609 0)" fill="black"/>
<rect id="Rectangle 41" x="6" width="3" height="3.00001" transform="rotate(90 6 0)" fill="black"/>
<rect id="Rectangle 65" x="36.0007" y="3" width="3" height="3.00001" transform="rotate(90 36.0007 3)" fill="black"/>
<rect id="Rectangle 85" x="8.99609" y="6" width="3" height="3.00001" transform="rotate(90 8.99609 6)" fill="black"/>
<rect id="Rectangle 176" x="8.99609" y="3" width="3" height="3.00001" transform="rotate(90 8.99609 3)" fill="black"/>
<rect id="Rectangle 96" x="8.99609" y="9" width="3" height="3.00001" transform="rotate(90 8.99609 9)" fill="black"/>
<rect id="Rectangle 177" x="30.0032" y="6" width="3" height="3.00001" transform="rotate(90 30.0032 6)" fill="black"/>
<rect id="Rectangle 178" x="30.0032" y="3" width="3" height="3.00001" transform="rotate(90 30.0032 3)" fill="black"/>
<rect id="Rectangle 179" x="30.0032" y="9" width="3" height="3.00001" transform="rotate(90 30.0032 9)" fill="black"/>
<rect id="Rectangle 180" x="23.9998" y="6" width="3" height="3.00001" transform="rotate(90 23.9998 6)" fill="black"/>
<rect id="Rectangle 181" x="23.9998" y="3" width="3" height="3.00001" transform="rotate(90 23.9998 3)" fill="black"/>
<rect id="Rectangle 182" x="23.9998" y="9" width="3" height="3.00001" transform="rotate(90 23.9998 9)" fill="black"/>
<rect id="Rectangle 100" x="30.0032" y="12" width="3" height="3.00001" transform="rotate(90 30.0032 12)" fill="black"/>
<rect id="Rectangle 101" x="26.9998" y="12" width="3" height="3.00001" transform="rotate(90 26.9998 12)" fill="black"/>
<rect id="Rectangle 102" x="23.9998" y="12" width="3" height="3.00001" transform="rotate(90 23.9998 12)" fill="black"/>
<rect id="Rectangle 103" x="20.999" y="12" width="3" height="3.00001" transform="rotate(90 20.999 12)" fill="black"/>
<rect id="Rectangle 104" x="17.9998" y="12" width="3" height="3.00001" transform="rotate(90 17.9998 12)" fill="black"/>
<rect id="Rectangle 105" x="14.999" y="12" width="3" height="3.00001" transform="rotate(90 14.999 12)" fill="black"/>
<rect id="Rectangle 106" x="12" y="12" width="3" height="3.00001" transform="rotate(90 12 12)" fill="black"/>
<rect id="Rectangle 107" x="8.99609" y="12" width="3" height="3.00001" transform="rotate(90 8.99609 12)" fill="black"/>
<rect id="Rectangle 132" x="33" y="21" width="3" height="3.00001" transform="rotate(90 33 21)" fill="black"/>
<rect id="Rectangle 133" x="30.0032" y="21" width="3" height="3.00001" transform="rotate(90 30.0032 21)" fill="black"/>
<rect id="Rectangle 134" x="26.9998" y="21" width="3" height="3.00001" transform="rotate(90 26.9998 21)" fill="black"/>
<rect id="Rectangle 135" x="23.9998" y="21" width="3" height="3.00001" transform="rotate(90 23.9998 21)" fill="black"/>
<rect id="Rectangle 136" x="20.999" y="21" width="3" height="3.00001" transform="rotate(90 20.999 21)" fill="black"/>
<rect id="Rectangle 137" x="17.9998" y="21" width="3" height="3.00001" transform="rotate(90 17.9998 21)" fill="black"/>
<rect id="Rectangle 138" x="14.999" y="21" width="3" height="3.00001" transform="rotate(90 14.999 21)" fill="black"/>
<rect id="Rectangle 139" x="12" y="21" width="3" height="3.00001" transform="rotate(90 12 21)" fill="black"/>
<rect id="Rectangle 140" x="8.99609" y="21" width="3" height="3.00001" transform="rotate(90 8.99609 21)" fill="black"/>
<rect id="Rectangle 143" x="33" y="24" width="3" height="3.00001" transform="rotate(90 33 24)" fill="black"/>
<rect id="Rectangle 151" x="8.99609" y="24" width="3" height="3.00001" transform="rotate(90 8.99609 24)" fill="black"/>
<rect id="Rectangle 154" x="33" y="27" width="3" height="3.00001" transform="rotate(90 33 27)" fill="black"/>
<rect id="Rectangle 162" x="8.99609" y="27" width="3" height="3.00001" transform="rotate(90 8.99609 27)" fill="black"/>
<rect id="Rectangle 165" x="33" y="30" width="3" height="3.00001" transform="rotate(90 33 30)" fill="black"/>
<rect id="Rectangle 173" x="8.99609" y="30" width="3" height="3.00001" transform="rotate(90 8.99609 30)" fill="black"/>
<rect id="Rectangle 174" x="8.99609" y="33" width="3" height="3.00001" transform="rotate(90 8.99609 33)" fill="black"/>
<rect id="Rectangle 175" x="33" y="33" width="3" height="3.00001" transform="rotate(90 33 33)" fill="black"/>
<rect id="Rectangle 54" x="36.0007" y="36" width="3" height="3.00001" transform="rotate(90 36.0007 36)" fill="black"/>
<rect id="Rectangle 55" x="33" y="36" width="3" height="3.00001" transform="rotate(90 33 36)" fill="black"/>
<rect id="Rectangle 56" x="30.0032" y="36" width="3" height="3.00001" transform="rotate(90 30.0032 36)" fill="black"/>
<rect id="Rectangle 57" x="26.9998" y="36" width="3" height="3.00001" transform="rotate(90 26.9998 36)" fill="black"/>
<rect id="Rectangle 58" x="23.9998" y="36" width="3" height="3.00001" transform="rotate(90 23.9998 36)" fill="black"/>
<rect id="Rectangle 59" x="20.999" y="36" width="3" height="3.00001" transform="rotate(90 20.999 36)" fill="black"/>
<rect id="Rectangle 60" x="17.9998" y="36" width="3" height="3.00001" transform="rotate(90 17.9998 36)" fill="black"/>
<rect id="Rectangle 61" x="14.999" y="36" width="3" height="3.00001" transform="rotate(90 14.999 36)" fill="black"/>
<rect id="Rectangle 62" x="12" y="36" width="3" height="3.00001" transform="rotate(90 12 36)" fill="black"/>
<rect id="Rectangle 63" x="8.99609" y="36" width="3" height="3.00001" transform="rotate(90 8.99609 36)" fill="black"/>
<rect id="Rectangle 64" x="6" y="36" width="3" height="3.00001" transform="rotate(90 6 36)" fill="black"/>
<rect id="Rectangle 42" x="39" y="39" width="3.00001" height="3" transform="rotate(-180 39 39)" fill="black"/>
<rect id="Rectangle 43" x="39" y="36" width="3.00001" height="3" transform="rotate(-180 39 36)" fill="black"/>
<rect id="Rectangle 44" x="39" y="33" width="3.00001" height="3" transform="rotate(-180 39 33)" fill="black"/>
<rect id="Rectangle 45" x="39" y="30" width="3.00001" height="3" transform="rotate(-180 39 30)" fill="black"/>
<rect id="Rectangle 46" x="39" y="27" width="3.00001" height="3" transform="rotate(-180 39 27)" fill="black"/>
<rect id="Rectangle 47" x="39" y="24" width="3.00001" height="3" transform="rotate(-180 39 24)" fill="black"/>
<rect id="Rectangle 48" x="39" y="21" width="3.00001" height="3" transform="rotate(-180 39 21)" fill="black"/>
<rect id="Rectangle 49" x="39" y="18" width="3.00001" height="3" transform="rotate(-180 39 18)" fill="black"/>
<rect id="Rectangle 50" x="39" y="15" width="3.00001" height="3" transform="rotate(-180 39 15)" fill="black"/>
<rect id="Rectangle 51" x="39" y="12" width="3.00001" height="3" transform="rotate(-180 39 12)" fill="black"/>
<rect id="Rectangle 52" x="39" y="9" width="3.00001" height="3" transform="rotate(-180 39 9)" fill="black"/>
</symbol>
</svg>
